<?xml version="1.0" standalone="no"?>
<!DOCTYPE svg PUBLIC "-//W3C//DTD SVG 20010904//EN"
 "http://www.w3.org/TR/2001/REC-SVG-20010904/DTD/svg10.dtd">
<svg version="1.0" xmlns="http://www.w3.org/2000/svg"
 width="400.000000pt" height="400.000000pt" viewBox="0 0 400.000000 400.000000"
 preserveAspectRatio="xMidYMid meet">
<metadata>
Created by potrace 1.14, written by Peter Selinger 2001-2017
</metadata>
<g transform="translate(0.000000,400.000000) scale(0.100000,-0.100000)"
fill="#000000" stroke="none">
<path d="M0 2000 l0 -2000 2000 0 2000 0 0 2000 0 2000 -2000 0 -2000 0 0
-2000z m1052 993 c33 -30 22 -57 -68 -154 -227 -249 -314 -444 -331 -747 -18
-329 99 -658 309 -872 113 -115 129 -149 88 -190 -43 -43 -102 -19 -196 80
-169 177 -279 393 -330 646 -21 110 -29 349 -15 457 32 236 135 460 306 660
101 119 189 164 237 120z m1904 -2 c38 -23 87 -71 154 -151 131 -158 221 -352
272 -585 21 -96 18 -461 -5 -553 -56 -232 -168 -435 -330 -600 -101 -103 -165
-124 -203 -66 -23 34 -12 52 106 179 144 155 234 319 275 505 24 110 30 342
12 465 -39 250 -133 442 -314 635 -67 72 -93 108 -93 128 0 5 9 21 21 36 25
31 61 34 105 7z m-1103 -129 c79 -37 145 -101 183 -178 15 -31 39 -115 55
-192 37 -176 65 -216 124 -178 34 22 33 79 -2 150 -47 96 -2 87 102 -19 114
-117 161 -225 171 -395 12 -200 -63 -363 -219 -474 -112 -80 -153 -53 -65 43
76 82 102 139 103 226 0 83 -22 149 -65 190 -16 16 -32 26 -35 23 -3 -3 -1
-26 5 -51 9 -33 9 -50 1 -66 -14 -25 -74 -43 -105 -31 -44 16 -51 37 -51 146
0 99 -1 103 -31 140 -41 51 -77 76 -103 72 l-22 -3 25 -34 c54 -72 28 -148
-85 -250 -105 -96 -123 -131 -117 -230 7 -112 51 -192 131 -232 37 -19 45 -33
28 -44 -18 -10 -135 45 -199 93 -115 87 -179 201 -189 338 -8 99 19 182 103
320 170 278 196 334 196 425 0 72 -27 134 -82 187 -26 24 -39 45 -35 52 13 21
106 6 178 -28z m888 -1571 c31 -32 34 -45 19 -86 -21 -56 -17 -56 -776 -53
l-696 3 -24 28 c-38 45 -30 98 21 125 14 8 234 11 723 12 l704 0 29 -29z"/>
</g>
</svg>
